<svg width="30" height="31" viewBox="0 0 30 31" fill="none" xmlns="http://www.w3.org/2000/svg">
<g clip-path="url(#clip0_774_4486)">
<path d="M16.7661 23.441H25.5896V21.6763H16.7661V23.441ZM11.472 16.3822H25.5896V14.6175H11.472V16.3822ZM20.2955 9.32336H25.5896V7.55865H20.2955V9.32336ZM27.3543 20.7939V24.3234C27.3543 24.5623 27.267 24.7691 27.0924 24.9438C26.9177 25.1184 26.7109 25.2057 26.472 25.2057H3.53079C3.29182 25.2057 3.08502 25.1184 2.91039 24.9438C2.73575 24.7691 2.64844 24.5623 2.64844 24.3234V20.7939C2.64844 20.555 2.73575 20.3482 2.91039 20.1735C3.08502 19.9989 3.29182 19.9116 3.53079 19.9116H26.472C26.7109 19.9116 26.9177 19.9989 27.0924 20.1735C27.267 20.3482 27.3543 20.555 27.3543 20.7939ZM27.3543 13.7351V17.2645C27.3543 17.5035 27.267 17.7103 27.0924 17.8849C26.9177 18.0596 26.7109 18.1469 26.472 18.1469H3.53079C3.29182 18.1469 3.08502 18.0596 2.91039 17.8849C2.73575 17.7103 2.64844 17.5035 2.64844 17.2645V13.7351C2.64844 13.4962 2.73575 13.2893 2.91039 13.1147C3.08502 12.9401 3.29182 12.8528 3.53079 12.8528H26.472C26.7109 12.8528 26.9177 12.9401 27.0924 13.1147C27.267 13.2893 27.3543 13.4962 27.3543 13.7351ZM27.3543 6.6763V10.2057C27.3543 10.4447 27.267 10.6515 27.0924 10.8261C26.9177 11.0007 26.7109 11.0881 26.472 11.0881H3.53079C3.29182 11.0881 3.08502 11.0007 2.91039 10.8261C2.73575 10.6515 2.64844 10.4447 2.64844 10.2057V6.6763C2.64844 6.43733 2.73575 6.23053 2.91039 6.05589C3.08502 5.88126 3.29182 5.79395 3.53079 5.79395H26.472C26.7109 5.79395 26.9177 5.88126 27.0924 6.05589C27.267 6.23053 27.3543 6.43733 27.3543 6.6763Z" fill="white"/>
</g>
<defs>
<clipPath id="clip0_774_4486">
<rect width="24.7059" height="19.4118" fill="white" transform="translate(2.64844 5.79395)"/>
</clipPath>
</defs>
</svg>
