<svg width="30" height="31" viewBox="0 0 30 31" fill="none" xmlns="http://www.w3.org/2000/svg">
<path d="M17.5 11.75C17.1458 11.75 16.8492 11.63 16.61 11.39C16.3708 11.15 16.2508 10.8533 16.25 10.5V5.5C16.25 5.14583 16.37 4.84917 16.61 4.61C16.85 4.37083 17.1467 4.25083 17.5 4.25H25C25.3542 4.25 25.6512 4.37 25.8912 4.61C26.1312 4.85 26.2508 5.14667 26.25 5.5V10.5C26.25 10.8542 26.13 11.1513 25.89 11.3913C25.65 11.6313 25.3533 11.7508 25 11.75H17.5ZM5 16.75C4.64583 16.75 4.34917 16.63 4.11 16.39C3.87083 16.15 3.75083 15.8533 3.75 15.5V5.5C3.75 5.14583 3.87 4.84917 4.11 4.61C4.35 4.37083 4.64667 4.25083 5 4.25H12.5C12.8542 4.25 13.1513 4.37 13.3913 4.61C13.6313 4.85 13.7508 5.14667 13.75 5.5V15.5C13.75 15.8542 13.63 16.1513 13.39 16.3913C13.15 16.6313 12.8533 16.7508 12.5 16.75H5ZM17.5 26.75C17.1458 26.75 16.8492 26.63 16.61 26.39C16.3708 26.15 16.2508 25.8533 16.25 25.5V15.5C16.25 15.1458 16.37 14.8492 16.61 14.61C16.85 14.3708 17.1467 14.2508 17.5 14.25H25C25.3542 14.25 25.6512 14.37 25.8912 14.61C26.1312 14.85 26.2508 15.1467 26.25 15.5V25.5C26.25 25.8542 26.13 26.1512 25.89 26.3912C25.65 26.6312 25.3533 26.7508 25 26.75H17.5ZM5 26.75C4.64583 26.75 4.34917 26.63 4.11 26.39C3.87083 26.15 3.75083 25.8533 3.75 25.5V20.5C3.75 20.1458 3.87 19.8492 4.11 19.61C4.35 19.3708 4.64667 19.2508 5 19.25H12.5C12.8542 19.25 13.1513 19.37 13.3913 19.61C13.6313 19.85 13.7508 20.1467 13.75 20.5V25.5C13.75 25.8542 13.63 26.1512 13.39 26.3912C13.15 26.6312 12.8533 26.7508 12.5 26.75H5Z" fill="#999999"/>
</svg>
