<svg width="28" height="29" viewBox="0 0 28 29" fill="none" xmlns="http://www.w3.org/2000/svg">
<path d="M6.125 6.625L7.21875 24.125C7.2707 25.1362 8.00625 25.875 8.96875 25.875H19.0312C19.9976 25.875 20.7195 25.1362 20.7812 24.125L21.875 6.625" stroke="#555555" stroke-width="1.3" stroke-linecap="round" stroke-linejoin="round"/>
<path d="M4.375 6.625H23.625H4.375Z" fill="#555555"/>
<path d="M4.375 6.625H23.625" stroke="#555555" stroke-width="1.3" stroke-miterlimit="10" stroke-linecap="round"/>
<path d="M10.5 6.62501V4.43751C10.4995 4.265 10.5331 4.0941 10.5989 3.93464C10.6647 3.77517 10.7613 3.63028 10.8833 3.5083C11.0053 3.38632 11.1502 3.28966 11.3096 3.22388C11.4691 3.1581 11.64 3.1245 11.8125 3.12501H16.1875C16.36 3.1245 16.5309 3.1581 16.6904 3.22388C16.8498 3.28966 16.9947 3.38632 17.1167 3.5083C17.2387 3.63028 17.3353 3.77517 17.4011 3.93464C17.4669 4.0941 17.5005 4.265 17.5 4.43751V6.62501M14 10.125V22.375M10.0625 10.125L10.5 22.375M17.9375 10.125L17.5 22.375" stroke="#555555" stroke-width="1.3" stroke-linecap="round" stroke-linejoin="round"/>
</svg>
