<svg width="43" height="44" viewBox="0 0 43 44" fill="none" xmlns="http://www.w3.org/2000/svg">
<rect y="0.5" width="43" height="43" rx="21" fill="#9385F7"/>
<path d="M12.2762 29.783L12.8832 25.621C12.9202 25.349 13.0442 25.096 13.2382 24.901L24.9992 13.124C25.1515 12.9696 25.341 12.857 25.5494 12.7973C25.7579 12.7375 25.9783 12.7326 26.1892 12.783C27.2689 13.0815 28.2476 13.6669 29.0212 14.477C29.8291 15.2559 30.4105 16.2396 30.7032 17.323C30.7536 17.5339 30.7487 17.7543 30.6889 17.9628C30.6292 18.1712 30.5167 18.3608 30.3622 18.513L18.5882 30.275C18.3929 30.4685 18.1397 30.5928 17.8672 30.629L13.7062 31.236C13.5097 31.2647 13.3091 31.2466 13.1208 31.1833C12.9326 31.12 12.7619 31.0132 12.6226 30.8715C12.4833 30.7299 12.3793 30.5575 12.3192 30.3682C12.259 30.1789 12.2443 29.978 12.2762 29.782M22.7742 15.364L28.1372 20.727" stroke="white" stroke-width="1.8" stroke-linecap="round" stroke-linejoin="round"/>
</svg>
