<svg width="89" height="89" viewBox="0 0 89 89" fill="none" xmlns="http://www.w3.org/2000/svg">
<path d="M48 0C54.3034 -9.39287e-08 60.5455 1.24109 66.3691 3.65332C72.1927 6.06554 77.4842 9.60141 81.9414 14.0586C84.6509 16.7681 87.0169 19.7877 89 23.0459V64C89 77.8071 77.8071 89 64 89H23.0459C19.8064 87.0284 16.7845 84.6673 14.0586 81.9414C5.05685 72.9397 0 60.7304 0 48C3.78857e-07 35.2696 5.05685 23.0603 14.0586 14.0586C23.0603 5.05685 35.2696 5.68545e-07 48 0ZM42.3037 56.1016L30.4375 44.2295L22.8965 51.7705L43.0244 71.8984L46.7627 67.4131L73.4297 35.4131L65.2373 28.5869L42.3037 56.1016Z" fill="white" fill-opacity="0.3"/>
</svg>
