<svg width="28" height="29" viewBox="0 0 28 29" fill="none" xmlns="http://www.w3.org/2000/svg">
<path d="M22.2732 17.3473V22.5273C22.2728 23.2602 21.9816 23.963 21.4633 24.4813C20.9451 24.9995 20.2422 25.2908 19.5093 25.2911H5.97482C5.61053 25.291 5.24987 25.2188 4.91354 25.0789C4.57722 24.9389 4.27187 24.7338 4.01504 24.4755C3.75821 24.2171 3.55497 23.9106 3.41698 23.5735C3.27899 23.2363 3.20899 22.8752 3.21099 22.5109V8.99161C3.20882 8.6279 3.27886 8.26738 3.41704 7.93093C3.55523 7.59449 3.75882 7.28882 4.016 7.03163C4.27319 6.77444 4.57886 6.57086 4.91531 6.43267C5.25175 6.29448 5.61228 6.22444 5.97599 6.22661H11.1548" stroke="#555555" stroke-width="1.3" stroke-linecap="round" stroke-linejoin="round"/>
<path d="M22.2741 10.9937L17.5082 6.22668M7.97656 18.9363V16.4105C7.9789 15.994 8.14456 15.5938 8.4374 15.2987L19.5581 4.17801C19.7056 4.0288 19.8813 3.91035 20.075 3.8295C20.2686 3.74866 20.4764 3.70703 20.6862 3.70703C20.8961 3.70703 21.1038 3.74866 21.2975 3.8295C21.4912 3.91035 21.6668 4.0288 21.8144 4.17801L24.3239 6.68751C24.4731 6.83507 24.5916 7.01076 24.6724 7.20441C24.7533 7.39807 24.7949 7.60583 24.7949 7.81568C24.7949 8.02553 24.7533 8.2333 24.6724 8.42695C24.5916 8.6206 24.4731 8.79629 24.3239 8.94385L13.2032 20.0645C12.9075 20.3582 12.5081 20.5237 12.0914 20.5253H9.56556C9.35681 20.5257 9.15004 20.4848 8.95712 20.405C8.76419 20.3253 8.5889 20.2082 8.44129 20.0606C8.29367 19.913 8.17664 19.7377 8.09689 19.5448C8.01715 19.3519 7.97626 19.1451 7.97656 18.9363Z" stroke="#555555" stroke-width="1.3" stroke-linecap="round" stroke-linejoin="round"/>
</svg>
