<svg width="64" height="63" viewBox="0 0 64 63" fill="none" xmlns="http://www.w3.org/2000/svg">
<path d="M30.1016 0C36.4364 0.000285093 41.5722 13.9252 41.5723 31.1025C41.5723 48.2799 36.4365 62.2048 30.1016 62.2051C23.7666 62.2051 18.6309 48.2801 18.6309 31.1025C18.6309 13.9251 23.7666 0 30.1016 0ZM31.2041 3.08887C25.722 3.08887 21.2774 15.6308 21.2773 31.1025C21.2773 46.5745 25.7219 59.1172 31.2041 59.1172C36.6861 59.1166 41.1299 46.5742 41.1299 31.1025C41.1298 15.6311 36.6861 3.08941 31.2041 3.08887Z" fill="#8734FD"/>
<path d="M64 28.3458C63.9994 35.9598 49.6727 42.132 32 42.132C14.3273 42.1319 0.000555343 35.9598 -6.02654e-07 28.3458C-2.69829e-07 20.7317 14.327 14.5587 32 14.5587C49.6731 14.5587 64 20.7317 64 28.3458ZM60.8477 30.0538C60.8475 23.6762 47.9321 18.506 32 18.506C16.0678 18.506 3.15245 23.6762 3.15234 30.0538C3.15234 36.4315 16.0678 41.6017 32 41.6017C47.9321 41.6016 60.8477 36.4315 60.8477 30.0538Z" fill="#8734FD"/>
</svg>
