<svg width="363" height="146" viewBox="0 0 363 146" fill="none" xmlns="http://www.w3.org/2000/svg">
<g filter="url(#filter0_d_774_4657)">
<path d="M88.3254 42.4C88.3254 48.0667 86.8587 53.2667 83.9254 58C80.9921 62.7333 76.7254 66.6 71.1254 69.6C65.5254 72.6 58.8587 74.3667 51.1254 74.9L46.8254 99C45.1587 108.267 40.6254 112.9 33.2254 112.9C29.1587 112.9 25.3921 111.7 21.9254 109.3C18.5254 106.9 15.7921 103.233 13.7254 98.3C11.6587 93.3667 10.6254 87.3 10.6254 80.1C10.6254 66.5667 12.7921 55.1 17.1254 45.7C21.5254 36.2333 27.3921 29.1667 34.7254 24.5C42.1254 19.7667 50.2587 17.4 59.1254 17.4C65.3921 17.4 70.6921 18.5 75.0254 20.7C79.4254 22.9 82.7254 25.9 84.9254 29.7C87.1921 33.4333 88.3254 37.6667 88.3254 42.4ZM52.9254 64.6C66.5921 62.8667 73.4254 55.7667 73.4254 43.3C73.4254 38.9 71.9587 35.3333 69.0254 32.6C66.1587 29.8 61.6921 28.4 55.6254 28.4C48.7587 28.4 42.7587 30.5667 37.6254 34.9C32.5587 39.2333 28.6254 45.2667 25.8254 53C23.0921 60.6667 21.7254 69.4333 21.7254 79.3C21.7254 83.4333 22.1254 87.1 22.9254 90.3C23.7921 93.5 24.8587 96 26.1254 97.8C27.4587 99.5333 28.7254 100.4 29.9254 100.4C31.5921 100.4 32.8587 98.1 33.7254 93.5L37.0254 74.6C34.4254 74.2 33.2921 74.0333 33.6254 74.1C31.6254 73.7667 30.3254 73.1667 29.7254 72.3C29.1254 71.3667 28.8254 70.2 28.8254 68.8C28.8254 67.3333 29.2254 66.1667 30.0254 65.3C30.8921 64.4333 32.0587 64 33.5254 64C34.1921 64 34.6921 64.0333 35.0254 64.1C36.6254 64.3667 37.8587 64.5333 38.7254 64.6C39.5921 59.4 40.8254 52.4333 42.4254 43.7C42.8254 41.4333 43.7254 39.8333 45.1254 38.9C46.5921 37.9 48.2921 37.4 50.2254 37.4C52.4254 37.4 53.9921 37.8333 54.9254 38.7C55.9254 39.5 56.4254 40.8 56.4254 42.6C56.4254 43.6667 56.3587 44.5333 56.2254 45.2L52.9254 64.6ZM92.4371 102.5C89.9038 102.5 88.1038 101.167 87.0371 98.5C86.0371 95.8333 85.5371 91.5667 85.5371 85.7C85.5371 77.0333 86.7704 68.8 89.2371 61C89.8371 59.0667 90.8038 57.6667 92.1371 56.8C93.5371 55.8667 95.4704 55.4 97.9371 55.4C99.2704 55.4 100.204 55.5667 100.737 55.9C101.27 56.2333 101.537 56.8667 101.537 57.8C101.537 58.8667 101.037 61.2667 100.037 65C99.3704 67.6667 98.8371 70 98.4371 72C98.0371 74 97.7038 76.4667 97.4371 79.4C99.6371 73.6667 102.104 69 104.837 65.4C107.57 61.8 110.237 59.2333 112.837 57.7C115.504 56.1667 117.937 55.4 120.137 55.4C124.47 55.4 126.637 57.5667 126.637 61.9C126.637 62.7667 126.337 64.8667 125.737 68.2C125.204 70.8667 124.937 72.5333 124.937 73.2C124.937 75.5333 125.77 76.7 127.437 76.7C129.304 76.7 131.704 75.2333 134.637 72.3C135.504 71.4333 136.404 71 137.337 71C138.204 71 138.87 71.4 139.337 72.2C139.87 72.9333 140.137 73.9333 140.137 75.2C140.137 77.6667 139.47 79.6 138.137 81C136.27 82.9333 134.07 84.6 131.537 86C129.07 87.3333 126.437 88 123.637 88C120.104 88 117.404 87.1 115.537 85.3C113.737 83.5 112.837 81.0667 112.837 78C112.837 77 112.937 76 113.137 75C113.27 73.6667 113.337 72.7667 113.337 72.3C113.337 71.2333 112.97 70.7 112.237 70.7C111.237 70.7 109.904 71.8333 108.237 74.1C106.637 76.3 105.037 79.2333 103.437 82.9C101.837 86.5667 100.537 90.4333 99.5371 94.5C98.8038 97.6333 97.9371 99.7667 96.9371 100.9C96.0038 101.967 94.5038 102.5 92.4371 102.5ZM181.845 71.3C182.712 71.3 183.378 71.7333 183.845 72.6C184.312 73.4667 184.545 74.5667 184.545 75.9C184.545 79.1 183.578 81 181.645 81.6C177.645 83 173.245 83.8 168.445 84C167.178 89.6 164.678 94.1 160.945 97.5C157.212 100.833 152.978 102.5 148.245 102.5C144.245 102.5 140.812 101.533 137.945 99.6C135.145 97.6667 133.012 95.1 131.545 91.9C130.078 88.7 129.345 85.2333 129.345 81.5C129.345 76.4333 130.312 71.9333 132.245 68C134.178 64 136.845 60.9 140.245 58.7C143.645 56.4333 147.412 55.3 151.545 55.3C156.612 55.3 160.678 57.0667 163.745 60.6C166.878 64.0667 168.712 68.3667 169.245 73.5C172.378 73.3 176.112 72.6333 180.445 71.5C180.978 71.3667 181.445 71.3 181.845 71.3ZM149.045 91.9C151.178 91.9 153.012 91.0333 154.545 89.3C156.145 87.5667 157.212 85.0667 157.745 81.8C155.678 80.4 154.078 78.5667 152.945 76.3C151.878 74.0333 151.345 71.6333 151.345 69.1C151.345 68.0333 151.445 66.9667 151.645 65.9H151.145C148.478 65.9 146.245 67.2 144.445 69.8C142.712 72.3333 141.845 75.9333 141.845 80.6C141.845 84.2667 142.545 87.0667 143.945 89C145.412 90.9333 147.112 91.9 149.045 91.9ZM215.862 74C217.729 74 218.662 75.4 218.662 78.2C218.662 83.4667 214.529 86.1 206.262 86.1C204.662 86.1 202.362 85.8 199.362 85.2C200.229 89.3333 200.929 93.9333 201.462 99C202.062 104 202.362 108.133 202.362 111.4C202.362 118.6 201.195 124.1 198.862 127.9C196.529 131.7 193.462 133.6 189.662 133.6C184.862 133.6 181.429 130.2 179.362 123.4C177.362 116.6 176.362 106.333 176.362 92.6C176.362 79.8 177.729 66.8333 180.462 53.7C183.262 40.5 187.062 29.6 191.862 21C196.729 12.3333 202.062 7.99999 207.862 7.99999C210.995 7.99999 213.429 9.39999 215.162 12.2C216.962 15 217.862 18.7667 217.862 23.5C217.862 39.1667 208.495 56.2333 189.762 74.7C189.095 81.2333 188.762 86.9667 188.762 91.9C188.762 98.7667 188.995 105.8 189.462 113C189.929 120.267 190.695 123.9 191.762 123.9C193.762 123.9 194.762 120.433 194.762 113.5C194.762 108.3 194.395 103.267 193.662 98.4C192.995 93.5333 192.062 88.4 190.862 83C190.795 82.1333 191.062 81.0333 191.662 79.7C192.329 78.3667 193.129 77.2 194.062 76.2C194.995 75.2 195.829 74.7 196.562 74.7C197.895 74.7 199.495 74.7667 201.362 74.9C201.962 74.9667 202.662 75 203.462 75C206.129 75 209.095 74.7667 212.362 74.3C212.895 74.2333 213.462 74.1667 214.062 74.1C214.662 74.0333 215.262 74 215.862 74ZM205.762 17.9C204.562 17.9 203.062 19.9333 201.262 24C199.529 28.0667 197.795 33.4667 196.062 40.2C194.329 46.8667 192.829 53.9333 191.562 61.4C196.895 55.3333 200.995 49.0333 203.862 42.5C206.729 35.9 208.195 29.7333 208.262 24C208.262 19.9333 207.429 17.9 205.762 17.9ZM262.118 71.3C262.985 71.3 263.652 71.7333 264.118 72.6C264.585 73.4667 264.818 74.5667 264.818 75.9C264.818 79.1 263.852 81 261.918 81.6C257.918 83 253.518 83.8 248.718 84C247.452 89.6 244.952 94.1 241.218 97.5C237.485 100.833 233.252 102.5 228.518 102.5C224.518 102.5 221.085 101.533 218.218 99.6C215.418 97.6667 213.285 95.1 211.818 91.9C210.352 88.7 209.618 85.2333 209.618 81.5C209.618 76.4333 210.585 71.9333 212.518 68C214.452 64 217.118 60.9 220.518 58.7C223.918 56.4333 227.685 55.3 231.818 55.3C236.885 55.3 240.952 57.0667 244.018 60.6C247.152 64.0667 248.985 68.3667 249.518 73.5C252.652 73.3 256.385 72.6333 260.718 71.5C261.252 71.3667 261.718 71.3 262.118 71.3ZM229.318 91.9C231.452 91.9 233.285 91.0333 234.818 89.3C236.418 87.5667 237.485 85.0667 238.018 81.8C235.952 80.4 234.352 78.5667 233.218 76.3C232.152 74.0333 231.618 71.6333 231.618 69.1C231.618 68.0333 231.718 66.9667 231.918 65.9H231.418C228.752 65.9 226.518 67.2 224.718 69.8C222.985 72.3333 222.118 75.9333 222.118 80.6C222.118 84.2667 222.818 87.0667 224.218 89C225.685 90.9333 227.385 91.9 229.318 91.9ZM294.136 79.7C295.002 79.7 295.669 80.1 296.136 80.9C296.669 81.7 296.936 82.8 296.936 84.2C296.936 86.8667 296.302 88.9333 295.036 90.4C292.169 93.9333 289.036 96.8333 285.636 99.1C282.302 101.367 278.502 102.5 274.236 102.5C268.369 102.5 264.002 99.8333 261.136 94.5C258.336 89.1667 256.936 82.2667 256.936 73.8C256.936 65.6667 257.969 56.4 260.036 46C262.169 35.6 265.269 26.6667 269.336 19.2C273.469 11.7333 278.369 7.99999 284.036 7.99999C287.236 7.99999 289.736 9.49999 291.536 12.5C293.402 15.4333 294.336 19.6667 294.336 25.2C294.336 33.1333 292.136 42.3333 287.736 52.8C283.336 63.2667 277.369 73.6333 269.836 83.9C270.302 86.6333 271.069 88.6 272.136 89.8C273.202 90.9333 274.602 91.5 276.336 91.5C279.069 91.5 281.469 90.7333 283.536 89.2C285.602 87.6 288.236 84.9 291.436 81.1C292.236 80.1667 293.136 79.7 294.136 79.7ZM281.836 17.9C280.302 17.9 278.569 20.6667 276.636 26.2C274.702 31.7333 273.002 38.6 271.536 46.8C270.069 55 269.269 62.8667 269.136 70.4C273.869 62.6 277.636 54.8 280.436 47C283.236 39.1333 284.636 31.9667 284.636 25.5C284.636 20.4333 283.702 17.9 281.836 17.9ZM301.953 48.8C299.153 48.8 297.053 48.1667 295.653 46.9C294.253 45.5667 293.553 43.7333 293.553 41.4C293.553 39.0667 294.453 37.1333 296.253 35.6C298.119 34 300.419 33.2 303.153 33.2C305.619 33.2 307.619 33.8 309.153 35C310.686 36.2 311.453 37.9 311.453 40.1C311.453 42.7667 310.586 44.9 308.853 46.5C307.119 48.0333 304.819 48.8 301.953 48.8ZM301.153 102.5C296.819 102.5 293.653 100.967 291.653 97.9C289.719 94.8333 288.753 90.7667 288.753 85.7C288.753 82.7 289.119 78.8667 289.853 74.2C290.653 69.4667 291.653 65.0667 292.853 61C293.453 58.8667 294.253 57.4 295.253 56.6C296.253 55.8 297.853 55.4 300.053 55.4C303.453 55.4 305.153 56.5333 305.153 58.8C305.153 60.4667 304.519 64.3333 303.253 70.4C301.653 77.7333 300.853 82.7 300.853 85.3C300.853 87.3 301.119 88.8333 301.653 89.9C302.186 90.9667 303.086 91.5 304.353 91.5C305.553 91.5 307.053 90.6667 308.853 89C310.653 87.3333 313.053 84.7 316.053 81.1C316.853 80.1667 317.753 79.7 318.753 79.7C319.619 79.7 320.286 80.1 320.753 80.9C321.286 81.7 321.553 82.8 321.553 84.2C321.553 86.8667 320.919 88.9333 319.653 90.4C313.053 98.4667 306.886 102.5 301.153 102.5ZM330.362 102.5C326.429 102.5 323.062 101.533 320.262 99.6C317.529 97.6 315.462 95 314.062 91.8C312.662 88.6 311.962 85.1667 311.962 81.5C311.962 76.4333 312.895 71.9333 314.762 68C316.695 64 319.295 60.9 322.562 58.7C325.829 56.4333 329.495 55.3 333.562 55.3C337.495 55.3 340.862 56.3 343.662 58.3C346.462 60.2333 348.562 62.8 349.962 66C351.362 69.2 352.062 72.6333 352.062 76.3C352.062 81.3667 351.095 85.9 349.162 89.9C347.229 93.8333 344.595 96.9333 341.262 99.2C337.995 101.4 334.362 102.5 330.362 102.5ZM331.462 91.7C333.729 91.7 335.629 90.4667 337.162 88C338.762 85.5333 339.562 81.9333 339.562 77.2C339.562 73.5333 338.895 70.7667 337.562 68.9C336.229 67.0333 334.629 66.1 332.762 66.1C330.362 66.1 328.362 67.3333 326.762 69.8C325.229 72.2 324.462 75.8 324.462 80.6C324.462 84.4 325.129 87.2 326.462 89C327.795 90.8 329.462 91.7 331.462 91.7Z" fill="white"/>
</g>
<defs>
<filter id="filter0_d_774_4657" x="0.625" y="0" width="361.438" height="145.6" filterUnits="userSpaceOnUse" color-interpolation-filters="sRGB">
<feFlood flood-opacity="0" result="BackgroundImageFix"/>
<feColorMatrix in="SourceAlpha" type="matrix" values="0 0 0 0 0 0 0 0 0 0 0 0 0 0 0 0 0 0 127 0" result="hardAlpha"/>
<feOffset dy="2"/>
<feGaussianBlur stdDeviation="5"/>
<feComposite in2="hardAlpha" operator="out"/>
<feColorMatrix type="matrix" values="0 0 0 0 0 0 0 0 0 0 0 0 0 0 0 0 0 0 0.25 0"/>
<feBlend mode="normal" in2="BackgroundImageFix" result="effect1_dropShadow_774_4657"/>
<feBlend mode="normal" in="SourceGraphic" in2="effect1_dropShadow_774_4657" result="shape"/>
</filter>
</defs>
</svg>
