<svg width="28" height="28" viewBox="0 0 28 28" fill="none" xmlns="http://www.w3.org/2000/svg">
<path fill-rule="evenodd" clip-rule="evenodd" d="M4.55 0.5C3.47587 0.5 2.44574 0.926695 1.68622 1.68622C0.926695 2.44574 0.5 3.47587 0.5 4.55V23.45C0.5 24.5241 0.926695 25.5543 1.68622 26.3138C2.44574 27.0733 3.47587 27.5 4.55 27.5H16.7V20.75C16.7 19.6759 17.1267 18.6457 17.8862 17.8862C18.6457 17.1267 19.6759 16.7 20.75 16.7H27.5V4.55C27.5 3.47587 27.0733 2.44574 26.3138 1.68622C25.5543 0.926695 24.5241 0.5 23.45 0.5H4.55ZM21.1455 26.3133C20.6603 26.7986 20.0596 27.1526 19.4 27.342V20.75C19.4 20.392 19.5422 20.0486 19.7954 19.7954C20.0486 19.5422 20.392 19.4 20.75 19.4H27.342C27.1526 20.0596 26.7986 20.6603 26.3133 21.1455L21.1455 26.3133ZM7.25 5.9C6.89196 5.9 6.54858 6.04223 6.29541 6.29541C6.04223 6.54858 5.9 6.89196 5.9 7.25C5.9 7.60804 6.04223 7.95142 6.29541 8.20459C6.54858 8.45777 6.89196 8.6 7.25 8.6H20.75C21.108 8.6 21.4514 8.45777 21.7046 8.20459C21.9578 7.95142 22.1 7.60804 22.1 7.25C22.1 6.89196 21.9578 6.54858 21.7046 6.29541C21.4514 6.04223 21.108 5.9 20.75 5.9H7.25ZM7.25 11.3C6.89196 11.3 6.54858 11.4422 6.29541 11.6954C6.04223 11.9486 5.9 12.292 5.9 12.65C5.9 13.008 6.04223 13.3514 6.29541 13.6046C6.54858 13.8578 6.89196 14 7.25 14H20.75C21.108 14 21.4514 13.8578 21.7046 13.6046C21.9578 13.3514 22.1 13.008 22.1 12.65C22.1 12.292 21.9578 11.9486 21.7046 11.6954C21.4514 11.4422 21.108 11.3 20.75 11.3H7.25ZM7.25 16.7C6.89196 16.7 6.54858 16.8422 6.29541 17.0954C6.04223 17.3486 5.9 17.692 5.9 18.05C5.9 18.408 6.04223 18.7514 6.29541 19.0046C6.54858 19.2578 6.89196 19.4 7.25 19.4H12.65C13.008 19.4 13.3514 19.2578 13.6046 19.0046C13.8578 18.7514 14 18.408 14 18.05C14 17.692 13.8578 17.3486 13.6046 17.0954C13.3514 16.8422 13.008 16.7 12.65 16.7H7.25Z" fill="#0070FF"/>
</svg>
