<svg width="87" height="78" viewBox="0 0 87 78" fill="none" xmlns="http://www.w3.org/2000/svg">
<path d="M73.9502 0C77.4112 5.25329e-05 80.7304 1.37496 83.1777 3.82227C85.625 6.26957 86.9999 9.5888 87 13.0498V52.2002H65.25C61.7889 52.2002 58.4698 53.5751 56.0225 56.0225C53.5751 58.4698 52.2002 61.7889 52.2002 65.25V78H0.644531C0.221488 76.7043 2.10749e-05 75.3387 0 73.9502V13.0498C5.15226e-05 9.5888 1.37496 6.26957 3.82227 3.82227C6.26957 1.37496 9.5888 5.1522e-05 13.0498 0H73.9502ZM85.7246 60.9004C82.4177 70.8356 73.0461 78 62 78H60.9004V65.25C60.9004 64.0963 61.358 62.9896 62.1738 62.1738C62.9896 61.358 64.0963 60.9004 65.25 60.9004H85.7246ZM21.75 52.2002C20.5964 52.2002 19.4896 52.6579 18.6738 53.4736C17.8581 54.2894 17.4004 55.3962 17.4004 56.5498C17.4004 57.7035 17.8581 58.8102 18.6738 59.626C19.4896 60.4418 20.5963 60.9004 21.75 60.9004H39.1504C40.3038 60.9003 41.4099 60.4415 42.2256 59.626C43.0414 58.8102 43.5 57.7035 43.5 56.5498C43.4999 55.3962 43.0413 54.2894 42.2256 53.4736C41.4099 52.6582 40.3038 52.2003 39.1504 52.2002H21.75ZM21.75 34.7998C20.5963 34.7998 19.4896 35.2584 18.6738 36.0742C17.8582 36.89 17.4004 37.9968 17.4004 39.1504C17.4005 40.3038 17.8583 41.4099 18.6738 42.2256C19.4896 43.0414 20.5963 43.5 21.75 43.5H65.25C66.4037 43.5 67.5104 43.0414 68.3262 42.2256C69.1417 41.4099 69.5995 40.3038 69.5996 39.1504C69.5996 37.9968 69.1418 36.89 68.3262 36.0742C67.5104 35.2584 66.4037 34.7998 65.25 34.7998H21.75ZM21.75 17.4004C20.5963 17.4004 19.4896 17.858 18.6738 18.6738C17.858 19.4896 17.4004 20.5963 17.4004 21.75C17.4004 22.9037 17.858 24.0104 18.6738 24.8262C19.4896 25.642 20.5963 26.0996 21.75 26.0996H65.25C66.4037 26.0996 67.5104 25.642 68.3262 24.8262C69.142 24.0104 69.5996 22.9037 69.5996 21.75C69.5996 20.5963 69.142 19.4896 68.3262 18.6738C67.5104 17.858 66.4037 17.4004 65.25 17.4004H21.75Z" fill="white" fill-opacity="0.3"/>
</svg>
