<svg width="43" height="44" viewBox="0 0 43 44" fill="none" xmlns="http://www.w3.org/2000/svg">
<rect y="0.5" width="43" height="43" rx="21.5" fill="#03D7C2"/>
<path d="M17.0556 17.0001V14.7779C17.0556 14.1885 17.2897 13.6233 17.7064 13.2065C18.1232 12.7898 18.6884 12.5557 19.2778 12.5557H23.7222C24.3116 12.5557 24.8768 12.7898 25.2936 13.2065C25.7103 13.6233 25.9444 14.1885 25.9444 14.7779V17.0001M21.5 22.5557V22.5668M11.5 19.2223C11.5 18.633 11.7341 18.0677 12.1509 17.651C12.5676 17.2342 13.1329 17.0001 13.7222 17.0001H29.2778C29.8671 17.0001 30.4324 17.2342 30.8491 17.651C31.2659 18.0677 31.5 18.633 31.5 19.2223V29.2223C31.5 29.8117 31.2659 30.3769 30.8491 30.7937C30.4324 31.2104 29.8671 31.4446 29.2778 31.4446H13.7222C13.1329 31.4446 12.5676 31.2104 12.1509 30.7937C11.7341 30.3769 11.5 29.8117 11.5 29.2223V19.2223Z" stroke="white" stroke-width="1.8" stroke-linecap="round" stroke-linejoin="round"/>
<path d="M11.5 23.667C14.6018 25.23 18.0267 26.0441 21.5 26.0441C24.9733 26.0441 28.3982 25.23 31.5 23.667" stroke="white" stroke-width="1.8" stroke-linecap="round" stroke-linejoin="round"/>
</svg>
