<svg width="43" height="44" viewBox="0 0 43 44" fill="none" xmlns="http://www.w3.org/2000/svg">
<rect y="0.5" width="43" height="43" rx="21" fill="#0070FF"/>
<path d="M13.5 14V30C13.5 30.5304 13.7107 31.0391 14.0858 31.4142C14.4609 31.7893 14.9696 32 15.5 32H27.5C28.0304 32 28.5391 31.7893 28.9142 31.4142C29.2893 31.0391 29.5 30.5304 29.5 30V18.342C29.5 18.0756 29.4467 17.8118 29.3433 17.5662C29.2399 17.3207 29.0885 17.0982 28.898 16.912L24.458 12.57C24.0844 12.2047 23.5826 12.0001 23.06 12H15.5C14.9696 12 14.4609 12.2107 14.0858 12.5858C13.7107 12.9609 13.5 13.4696 13.5 14Z" stroke="white" stroke-width="1.8" stroke-linecap="round" stroke-linejoin="round"/>
<path d="M23.5 12V16C23.5 16.5304 23.7107 17.0391 24.0858 17.4142C24.4609 17.7893 24.9696 18 25.5 18H29.5" stroke="white" stroke-width="1.8" stroke-linejoin="round"/>
</svg>
