<svg width="84" height="79" viewBox="0 0 84 79" fill="none" xmlns="http://www.w3.org/2000/svg">
<path d="M43.7471 0C44.596 0 45.4104 0.337193 46.0107 0.9375C46.611 1.5378 46.9482 2.35222 46.9482 3.20117V19.4199C46.9371 20.2653 46.5959 21.0731 45.998 21.6709C45.4001 22.2687 44.5925 22.6091 43.7471 22.6201C39.5672 22.5914 35.4758 23.8266 32.0098 26.1631C28.5243 28.4731 25.8061 31.7693 24.2021 35.6309C22.5982 39.4926 22.1816 43.745 23.0049 47.8447C24.3437 52.7083 27.3619 56.9404 31.5244 59.79C35.687 62.6396 40.7247 63.9226 45.7432 63.4111C50.7618 62.8995 55.4374 60.6261 58.9395 56.9951C62.4414 53.3642 64.5441 48.6099 64.874 43.5762C64.8683 43.1544 64.9467 42.7356 65.1055 42.3447C65.2643 41.9538 65.5004 41.5982 65.7988 41.2998C66.0971 41.0016 66.4521 40.7662 66.8428 40.6074C67.2337 40.4486 67.6532 40.3693 68.0752 40.375H84V54C84 67.8071 72.8071 79 59 79H17.8457C16.0724 77.6971 14.3886 76.2558 12.8135 74.6807C4.60936 66.4765 0 55.3495 0 43.7471C3.09075e-05 32.1446 4.60932 21.0176 12.8135 12.8135C21.0176 4.60932 32.1446 3.09083e-05 43.7471 0ZM38.0459 34.793C38.4678 34.7949 38.8854 34.8797 39.2744 35.043C39.6636 35.2063 40.0174 35.4453 40.3145 35.7451C40.6114 36.0449 40.8462 36.4004 41.0059 36.791C41.1656 37.1817 41.2471 37.6004 41.2451 38.0225C41.2431 38.4445 41.1575 38.8619 40.9941 39.251C40.8308 39.64 40.5927 39.9931 40.293 40.29C39.8326 40.7402 39.467 41.2784 39.2178 41.8721C38.9685 42.4658 38.8406 43.1041 38.8418 43.748C38.7851 44.7616 39.0473 45.7677 39.5908 46.625C40.1344 47.4822 40.9322 48.1482 41.873 48.5293C42.814 48.9104 43.8508 48.9875 44.8379 48.75C45.8249 48.5125 46.7133 47.9725 47.3779 47.2051C47.9854 46.603 48.8059 46.2647 49.6611 46.2646C50.5164 46.2646 51.3369 46.603 51.9443 47.2051C52.5362 47.8178 52.8672 48.6363 52.8672 49.4883C52.8671 50.3402 52.5362 51.1588 51.9443 51.7715C50.8658 52.8367 49.5856 53.676 48.1787 54.2402C46.7716 54.8045 45.2658 55.0825 43.75 55.0576C41.509 55.0596 39.3182 54.3957 37.4551 53.1504C35.592 51.9051 34.1403 50.1349 33.2852 48.0635C32.4301 45.9922 32.2103 43.7134 32.6523 41.5166C33.0945 39.3197 34.1788 37.303 35.7686 35.7236C36.0683 35.4267 36.4239 35.1919 36.8145 35.0322C37.2052 34.8725 37.6238 34.791 38.0459 34.793ZM68.6729 1.75098C69.4623 1.63659 70.2678 1.77051 70.9775 2.13477C71.6818 2.49296 72.2727 3.03965 72.6846 3.71387C73.1013 4.46837 73.2804 5.33152 73.1973 6.18945L71.8311 15.835L81.4346 14.5117C82.2382 14.4329 83.0468 14.599 83.7549 14.9873C83.8386 15.0332 83.9202 15.0823 84 15.1338V21.9336L75.7148 30.2188C74.3978 31.541 72.7683 32.5096 70.9775 33.0352C69.9269 33.3578 68.8324 33.5164 67.7334 33.5049C66.981 33.5716 66.2241 33.5716 65.4717 33.5049L59.7949 32.3945L50.0645 42.1689C49.4525 42.7509 48.6459 43.0849 47.8018 43.1074C46.9533 43.1066 46.1397 42.7693 45.54 42.1689C45.238 41.8747 44.9979 41.5223 44.834 41.1338C44.6702 40.7454 44.5859 40.3277 44.5859 39.9062C44.586 39.4848 44.6702 39.0671 44.834 38.6787C44.9979 38.2903 45.2381 37.9387 45.54 37.6445L55.3135 27.8281L54.1611 22.1943C53.8168 20.3785 53.9052 18.5071 54.418 16.7314C54.9435 14.9406 55.912 13.3112 57.2344 11.9941L66.4111 2.81738C67.0416 2.24398 67.8294 1.87276 68.6729 1.75098Z" fill="white" fill-opacity="0.3"/>
</svg>
