<svg width="28" height="28" viewBox="0 0 28 28" fill="none" xmlns="http://www.w3.org/2000/svg">
<path d="M14.001 17.4905C13.3095 17.4912 12.6334 17.2863 12.0584 16.9021C11.4835 16.5178 11.0357 15.9714 10.7719 15.3322C10.508 14.693 10.44 13.9898 10.5764 13.3119C10.7128 12.634 11.0476 12.0119 11.5382 11.5245C11.6307 11.4328 11.7404 11.3603 11.861 11.311C11.9815 11.2618 12.1106 11.2367 12.2408 11.2373C12.3711 11.2379 12.4999 11.2642 12.62 11.3146C12.7401 11.365 12.8491 11.4386 12.9408 11.5311C13.0325 11.6236 13.105 11.7333 13.1543 11.8539C13.2036 11.9744 13.2286 12.1035 13.228 12.2338C13.2274 12.364 13.2011 12.4929 13.1507 12.613C13.1003 12.7331 13.0267 12.842 12.9342 12.9337C12.7921 13.0726 12.6793 13.2386 12.6024 13.4218C12.5255 13.605 12.4861 13.8018 12.4864 14.0005C12.4689 14.3133 12.5497 14.6237 12.7174 14.8883C12.8852 15.1529 13.1315 15.3584 13.4219 15.476C13.7122 15.5936 14.0321 15.6174 14.3367 15.5441C14.6413 15.4708 14.9153 15.3041 15.1204 15.0673C15.3079 14.8815 15.5611 14.7772 15.825 14.7772C16.0889 14.7772 16.3422 14.8815 16.5296 15.0673C16.7123 15.2563 16.8144 15.509 16.8144 15.7719C16.8144 16.0348 16.7123 16.2874 16.5296 16.4765C16.1968 16.8052 15.8017 17.0642 15.3675 17.2383C14.9333 17.4125 14.4687 17.4982 14.001 17.4905Z" fill="#03D7C2"/>
<path d="M27.4986 14.0003C27.4986 17.5805 26.0764 21.0141 23.5447 23.5457C21.0131 26.0773 17.5795 27.4996 13.9993 27.4996C10.4191 27.4996 6.98546 26.0773 4.45385 23.5457C1.92224 21.0141 0.5 17.5805 0.5 14.0003C0.5 10.42 1.92224 6.98644 4.45385 4.45483C6.98546 1.92322 10.4191 0.500977 13.9993 0.500977C14.2613 0.500977 14.5125 0.605043 14.6977 0.790283C14.883 0.975523 14.9871 1.22676 14.9871 1.48873V6.49335C14.9836 6.75426 14.8785 7.00352 14.694 7.18802C14.5095 7.37253 14.2602 7.47769 13.9993 7.4811C12.7095 7.47222 11.4471 7.85324 10.3775 8.57421C9.30197 9.28704 8.46319 10.3042 7.96824 11.4958C7.47329 12.6874 7.34462 13.9995 7.59865 15.2646C8.01178 16.7654 8.94323 18.0714 10.2277 18.9507C11.5122 19.8301 13.0667 20.2259 14.6153 20.0681C16.164 19.9102 17.6066 19.2088 18.6872 18.0884C19.7679 16.968 20.4167 15.5009 20.5185 13.9476C20.5167 13.8174 20.541 13.6882 20.59 13.5675C20.6391 13.4469 20.7118 13.3373 20.8038 13.2452C20.8959 13.1531 21.0055 13.0804 21.1261 13.0314C21.2468 12.9824 21.376 12.9581 21.5062 12.9598H26.5108C26.6451 12.9596 26.778 12.9868 26.9014 13.0397C27.0248 13.0926 27.1361 13.1701 27.2286 13.2675C27.321 13.3649 27.3927 13.4801 27.4391 13.6061C27.4855 13.7321 27.5058 13.8662 27.4986 14.0003Z" fill="#03D7C2"/>
<path d="M27.0243 6.26908C26.9899 6.52531 26.885 6.76696 26.7214 6.96709L23.8635 9.82499C23.457 10.2331 22.9542 10.532 22.4016 10.6942C22.0774 10.7938 21.7398 10.8426 21.4007 10.8391C21.1685 10.8597 20.9349 10.8597 20.7027 10.8391L18.9511 10.4967L15.9483 13.5126C15.7594 13.6922 15.5108 13.7954 15.2503 13.8023C14.9884 13.8021 14.7373 13.6979 14.5523 13.5126C14.4591 13.4218 14.385 13.3133 14.3344 13.1934C14.2839 13.0735 14.2578 12.9447 14.2578 12.8146C14.2578 12.6845 14.2839 12.5557 14.3344 12.4358C14.385 12.3159 14.4591 12.2074 14.5523 12.1166L17.5682 9.08747L17.2126 7.34902C17.1063 6.78868 17.1334 6.2112 17.2916 5.66326C17.4538 5.11062 17.7528 4.60782 18.1608 4.20138L20.9924 1.36982C21.187 1.19283 21.4301 1.07816 21.6904 1.04057C21.934 1.00527 22.1826 1.0467 22.4016 1.1591C22.6189 1.26964 22.8013 1.43833 22.9284 1.64639C23.057 1.87921 23.1121 2.14552 23.0864 2.41025L22.665 5.38669L25.6283 4.97841C25.8763 4.95407 26.1259 5.00516 26.3445 5.125C26.563 5.24484 26.7403 5.42785 26.8531 5.65009C26.9604 5.83913 27.0192 6.05178 27.0243 6.26908Z" fill="#03D7C2"/>
</svg>
