<svg width="28" height="28" viewBox="0 0 28 28" fill="none" xmlns="http://www.w3.org/2000/svg">
<path d="M9.39518 24C9.23404 23.9945 9.07571 23.9558 8.9299 23.8863C8.78408 23.8168 8.65384 23.718 8.54718 23.5958L0.547177 15.5122C0.394645 15.4123 0.266576 15.2786 0.172638 15.1214C0.0787001 14.9641 0.0213488 14.7873 0.00491422 14.6044C-0.0115203 14.4215 0.0133916 14.2372 0.0777688 14.0654C0.142146 13.8936 0.244306 13.7388 0.376536 13.6128C0.508765 13.4867 0.667608 13.3927 0.841071 13.3378C1.01453 13.2828 1.19808 13.2684 1.37786 13.2956C1.55764 13.3229 1.72895 13.391 1.87885 13.4949C2.02875 13.5988 2.15333 13.7358 2.24318 13.8955L9.39518 21.0737L26.1472 4.19513C26.3727 4.04738 26.6408 3.98041 26.9085 4.00497C27.1762 4.02952 27.4279 4.14417 27.6235 4.33055C27.819 4.51692 27.9469 4.76423 27.9867 5.03282C28.0266 5.30142 27.976 5.57575 27.8432 5.81186L10.2432 23.5958C10.1365 23.718 10.0063 23.8168 9.86046 23.8863C9.71464 23.9558 9.55631 23.9945 9.39518 24Z" fill="#868686"/>
</svg>
