<svg width="89" height="94" viewBox="0 0 89 94" fill="none" xmlns="http://www.w3.org/2000/svg">
<path d="M45.5742 15.9258C50.8066 15.9258 55.8283 16.7692 60.6387 18.457C65.4491 20.1449 69.9639 22.5929 74.1836 25.7998L81.2734 18.7109L88.3623 25.7998L81.2734 32.8896C84.4803 37.1092 86.9274 41.6243 88.6152 46.4346C88.7492 46.8163 88.8767 47.1996 89 47.584V69C89 82.8071 77.8071 94 64 94H13.7705C13.6532 93.885 13.5351 93.7707 13.4189 93.6543C9.28693 89.5155 6.01732 84.6825 3.61035 79.1562C1.20349 73.6301 0 67.7442 0 61.499C4.48405e-05 55.2539 1.20343 49.3664 3.61035 43.8369C6.0173 38.3074 9.28697 33.4767 13.4189 29.3447C17.5509 25.2128 22.3832 21.9431 27.916 19.5361C33.449 17.1292 39.3357 15.9258 45.5742 15.9258ZM40.5098 66.5635H50.6377V36.1807H40.5098V66.5635ZM60.7646 10.8623H30.3828V0.734375H60.7646V10.8623Z" fill="white" fill-opacity="0.3"/>
</svg>
