<svg width="43" height="44" viewBox="0 0 43 44" fill="none" xmlns="http://www.w3.org/2000/svg">
<rect y="0.5" width="43" height="43" rx="21" fill="#757575"/>
<path d="M29.7292 22.0005H18.5293M29.7292 28.4005H18.5293M29.7292 15.6006H18.5293" stroke="white" stroke-width="1.8" stroke-linecap="round" stroke-linejoin="round"/>
<path fill-rule="evenodd" clip-rule="evenodd" d="M13.7273 17.2C14.5273 17.2 15.3273 16.4 15.3273 15.6C15.3273 14.8 14.5273 14 13.7273 14C12.9273 14 12.1289 14.8 12.1289 15.6C12.1289 16.4 12.9273 17.2 13.7273 17.2ZM13.7273 23.5999C14.5273 23.5999 15.3273 22.7999 15.3273 21.9999C15.3273 21.1999 14.5273 20.3999 13.7273 20.3999C12.9273 20.3999 12.1289 21.1999 12.1289 21.9999C12.1289 22.7999 12.9273 23.5999 13.7273 23.5999ZM13.7273 29.9999C14.5273 29.9999 15.3273 29.1999 15.3273 28.3999C15.3273 27.5999 14.5273 26.7999 13.7273 26.7999C12.9273 26.7999 12.1289 27.5999 12.1289 28.3999C12.1289 29.1999 12.9273 29.9999 13.7273 29.9999Z" fill="white"/>
</svg>
