<svg width="24" height="28" viewBox="0 0 24 28" fill="none" xmlns="http://www.w3.org/2000/svg">
<path d="M8.16667 3.07143V0.5H15.8333V3.07143H8.16667ZM10.7222 17.2143H13.2778V9.5H10.7222V17.2143ZM12 27.5C10.4241 27.5 8.93844 27.1948 7.54311 26.5846C6.14778 25.9743 4.92878 25.1437 3.88611 24.0929C2.84344 23.042 2.01843 21.815 1.41106 20.4119C0.803685 19.0087 0.5 17.5143 0.5 15.9286C0.5 14.3429 0.803685 12.848 1.41106 11.444C2.01843 10.04 2.84344 8.81343 3.88611 7.76428C4.92878 6.71514 6.1482 5.885 7.54439 5.27386C8.94057 4.66271 10.4258 4.35714 12 4.35714C13.3204 4.35714 14.5875 4.57143 15.8014 5C17.0153 5.42857 18.1546 6.05 19.2194 6.86428L21.0083 5.06428L22.7972 6.86428L21.0083 8.66428C21.8176 9.73571 22.4352 10.8821 22.8611 12.1036C23.287 13.325 23.5 14.6 23.5 15.9286C23.5 17.5143 23.1963 19.0091 22.5889 20.4131C21.9816 21.8171 21.1566 23.0437 20.1139 24.0929C19.0712 25.142 17.8518 25.9726 16.4556 26.5846C15.0594 27.1966 13.5742 27.5017 12 27.5Z" fill="#9385F7"/>
</svg>
